#!OML:ASF E:\Style4\Style4.ASF
:FULLY-SPECIFIED
:DEGREES
2580
root -0.630819 17.7776 -1.88487 9.50354 18.4114 12.1776
lowerback 13.2768 5.75459 7.63389
upperback 8.19024 8.46265 5.46836
thorax 1.54816 4.40895 0.535231
lowerneck 4.99458 -11.1922 -6.82912
upperneck 5.82008 -14.7984 -8.95187
head 0.797346 -7.47834 -1.5582
rclavicle -1.145e-013 2.54444e-014
rhumerus 42.4523 -0.661463 -63.6153
rradius 29.7791
rwrist 23.3699
rhand 27.8455 6.34059
rfingers 7.12502
rthumb 51.7599 -13.9066
lclavicle -1.145e-013 2.54444e-014
lhumerus 17.6726 21.2467 -5.62031
lradius 84.4788
lwrist 44.0855
lhand 31.8842 41.4149
lfingers 7.12502
lthumb 55.3924 59.2658
rfemur -26.4125 -16.2859 8.97904
rtibia 41.6675
rfoot -20.2564 -21.2716
rtoes -6.65967
lfemur -23.9593 -4.79851 -29.1341
ltibia 25.2715
lfoot -3.04995 -1.49086
ltoes -13.455
2581
root -0.594106 17.8056 -1.88752 9.50556 17.7056 12.1369
lowerback 13.2102 5.70852 7.58424
upperback 8.07926 8.39328 5.36433
thorax 1.47005 4.36866 0.458706
lowerneck 4.7772 -10.8533 -6.56748
upperneck 6.11272 -14.2825 -9.26393
head 0.88928 -7.2389 -1.71913
rclavicle 1.11319e-014 -3.18055e-014
rhumerus 41.9714 -0.126426 -64.2226
rradius 29.8863
rwrist 23.4155
rhand 27.4644 6.32156
rfingers 7.12502
rthumb 51.4135 -14.1261
lclavicle 1.11319e-014 -3.18055e-014
lhumerus 19.7711 21.7786 -4.68371
lradius 83.2536
lwrist 43.54
lhand 31.9942 41.2822
lfingers 7.12502
lthumb 55.4904 59.0601
rfemur -26.2119 -15.7372 8.84113
rtibia 40.9519
rfoot -19.9717 -21.067
rtoes -6.08548
lfemur -23.6127 -4.53636 -29.2306
ltibia 24.6502
lfoot -2.90398 -1.12513
ltoes -13.313
2582
root -0.561288 17.8304 -1.88922 9.45147 16.9805 12.0898
lowerback 13.1828 5.64523 7.4082
upperback 8.03137 8.28914 5.32354
thorax 1.40757 4.30778 0.517629
lowerneck 4.63016 -10.4913 -6.45781
upperneck 6.17159 -13.773 -9.48561
head 0.915998 -6.99315 -1.81721
rclavicle -4.77083e-015 3.81667e-014
rhumerus 41.6345 0.548077 -64.7154
rradius 29.9797
rwrist 23.4124
rhand 27.1908 6.34356
rfingers 7.12502
rthumb 51.1646 -14.2455
lclavicle -4.77083e-015 3.81667e-014
lhumerus 21.6213 22.178 -3.82414
lradius 82.1605
lwrist 43.021
lhand 31.8888 41.0196
lfingers 7.12502
lthumb 55.3966 58.8675
rfemur -25.9903 -15.1026 8.70956
rtibia 40.2668
rfoot -19.4267 -21.1059
rtoes -7.12778
lfemur -23.2066 -4.29872 -29.3108
ltibia 24.0182
lfoot -2.8339 -0.702704
ltoes -13.902
2583
root -0.532302 17.8536 -1.89497 9.28008 16.276 11.8795
lowerback 13.3313 5.53152 7.33604
upperback 7.92131 8.153 5.31473
thorax 1.19508 4.22847 0.533001
lowerneck 4.59232 -10.0986 -6.35799
upperneck 6.24371 -13.2317 -9.65825
head 0.935459 -6.72934 -1.89364
rclavicle -1.59028e-014 1.90833e-014
rhumerus 41.1388 1.36471 -65.2426
rradius 30.1736
rwrist 23.5469
rhand 27.0194 6.4863
rfingers 7.12502
rthumb 51.0085 -14.1904
lclavicle -1.59028e-014 1.90833e-014
lhumerus 23.3972 22.3552 -2.98275
lradius 81.0564
lwrist 42.468
lhand 31.7836 40.7943
lfingers 7.12502
lthumb 55.3029 58.7115
rfemur -25.7454 -14.3586 8.745
rtibia 39.6097
rfoot -18.5541 -21.4325
rtoes -9.46414
lfemur -22.7396 -4.10684 -29.1908
ltibia 23.3722
lfoot -2.78259 -0.228974
ltoes -13.2644
2584
root -0.500181 17.875 -1.89844 9.15537 15.4952 11.7506
lowerback 13.3932 5.45567 7.24238
upperback 7.86453 8.04953 5.23269
thorax 1.09507 4.17034 0.496564
lowerneck 4.32411 -9.76789 -6.19396
upperneck 6.47243 -12.7327 -9.88174
head 1.03635 -6.4998 -2.01652
rclavicle 1.25632e-013 1.90833e-014
rhumerus 40.6539 2.07552 -65.7628
rradius 30.4262
rwrist 23.6216
rhand 27.037 6.70359
rfingers 7.12502
rthumb 51.0245 -13.9641
lclavicle 1.25632e-013 1.90833e-014
lhumerus 25.0607 22.5702 -2.22809
lradius 80.0567
lwrist 41.9736
lhand 31.8177 40.6273
lfingers 7.12502
lthumb 55.3333 58.5221
rfemur -25.5666 -13.6794 8.69301
rtibia 38.981
rfoot -17.8384 -21.5427
rtoes -11.1345
lfemur -22.3014 -3.82792 -29.1873
ltibia 22.7708
lfoot -2.78984 0.169684
ltoes -12.9807
2585
root -0.463075 17.8978 -1.89622 9.0532 14.7592 11.6443
lowerback 13.3414 5.3739 7.24177
upperback 7.84926 7.9325 5.07782
thorax 1.12381 4.11426 0.354146
lowerneck 3.64797 -9.50608 -5.92773
upperneck 7.02126 -12.2516 -10.1712
head 1.30069 -6.30504 -2.21488
rclavicle 1.90833e-014 1.90833e-014
rhumerus 40.2102 2.66382 -66.2801
rradius 30.7324
rwrist 23.5148
rhand 27.11 6.79051
rfingers 7.12502
rthumb 51.091 -13.84
lclavicle 1.90833e-014 1.90833e-014
lhumerus 26.902 22.7143 -1.319
lradius 79.034
lwrist 41.3839
lhand 31.7869 40.3817
lfingers 7.12502
lthumb 55.3058 58.2968
rfemur -25.3757 -13.2048 8.62015
rtibia 38.3857
rfoot -17.2491 -21.4094
rtoes -12.2354
lfemur -21.8771 -3.54908 -29.2346
ltibia 22.258
lfoot -2.84373 0.544644
ltoes -13.9867
2586
root -0.431073 17.9175 -1.89578 8.89811 14.0415 11.3735
lowerback 13.3366 5.26693 7.28122
upperback 7.82292 7.7937 5.00657
thorax 1.10803 4.04544 0.27243
lowerneck 3.25662 -9.188 -5.7364
upperneck 7.33531 -11.7507 -10.3529
head 1.45814 -6.08209 -2.34079
rclavicle -1.11319e-014 0
rhumerus 39.8895 3.37007 -66.6726
rradius 30.9571
rwrist 23.0878
rhand 27.1778 6.7808
rfingers 7.12502
rthumb 51.1527 -13.815
lclavicle -1.11319e-014 0
lhumerus 28.9828 22.6884 0.0219235
lradius 77.7783
lwrist 40.276
lhand 31.871 40.3346
lfingers 7.12502
lthumb 55.3807 58.1943
rfemur -25.211 -12.636 8.74354
rtibia 37.8563
rfoot -16.7729 -21.3116
rtoes -12.8956
lfemur -21.5051 -3.27919 -29.0736
ltibia 21.8367
lfoot -2.95431 0.907471
ltoes -14.6358
2587
root -0.40091 17.9293 -1.89959 8.76778 13.2577 11.1202
lowerback 13.2664 5.16133 7.05029
upperback 7.84217 7.62021 5.04752
thorax 1.11926 3.95053 0.462991
lowerneck 3.60846 -8.70905 -5.4813
upperneck 6.84802 -11.1819 -10.6363
head 1.22402 -5.76515 -2.4296
rclavicle -1.43125e-013 -6.04305e-014
rhumerus 39.6699 4.30168 -66.8815
rradius 31.2311
rwrist 22.5537
rhand 27.2298 6.73857
rfingers 7.12502
rthumb 51.2 -13.8305
lclavicle -1.43125e-013 -6.04305e-014
lhumerus 30.4514 22.6513 1.04183
lradius 76.7868
lwrist 39.3606
lhand 31.9496 40.211
lfingers 7.12502
lthumb 55.4507 58.0186
rfemur -25.1126 -12.0345 8.85402
rtibia 37.3995
rfoot -16.5526 -21.0416
rtoes -12.5359
lfemur -21.2495 -3.00448 -28.9271
ltibia 21.5292
lfoot -3.20658 1.39935
ltoes -14.1724
2588
root -0.367244 17.937 -1.90697 8.65929 12.5071 10.915
lowerback 13.1767 5.0387 6.8395
upperback 7.89539 7.42205 5.05007
thorax 1.18598 3.84675 0.610932
lowerneck 3.76054 -8.2112 -5.34539
upperneck 6.43305 -10.5696 -10.7816
head 1.06695 -5.43702 -2.47601
rclavicle 1.27222e-014 2.54444e-014
rhumerus 39.4262 5.11822 -67.1604
rradius 31.633
rwrist 22.0865
rhand 27.4075 6.61352
rfingers 7.12502
rthumb 51.3617 -13.8637
lclavicle 1.27222e-014 2.54444e-014
lhumerus 31.9584 22.6146 1.98844
lradius 75.6828
lwrist 38.5526
lhand 32.2059 40.0102
lfingers 7.12502
lthumb 55.6785 57.6464
rfemur -25.0378 -11.507 8.90714
rtibia 36.9922
rfoot -16.5267 -20.676
rtoes -11.2427
lfemur -21.0994 -2.7844 -28.8584
ltibia 21.3982
lfoot -3.5448 1.95242
ltoes -14.5424
2589
root -0.335557 17.9434 -1.91526 8.57109 11.735 10.6774
lowerback 13.1251 4.90411 6.76887
upperback 7.95699 7.22454 4.96855
thorax 1.2729 3.74969 0.594534
lowerneck 3.52228 -7.8086 -5.47576
upperneck 6.4074 -10.0239 -10.5526
head 1.13424 -5.17595 -2.39724
rclavicle 4.45278e-014 -2.54444e-014
rhumerus 39.23 5.83565 -67.6024
rradius 32.0447
rwrist 21.6671
rhand 27.4045 6.44279
rfingers 7.12502
rthumb 51.359 -14.036
lclavicle 4.45278e-014 -2.54444e-014
lhumerus 33.763 22.5469 3.17097
lradius 74.3774
lwrist 37.4775
lhand 32.4205 39.7515
lfingers 7.12502
lthumb 55.8689 57.2424
rfemur -25.0372 -10.9331 9.00871
rtibia 36.6204
rfoot -16.4432 -20.3875
rtoes -10.3669
lfemur -21.0642 -2.47329 -28.7629
ltibia 21.3965
lfoot -3.85992 2.39688
ltoes -15.5244
2590
root -0.308973 17.9489 -1.92738 8.51351 10.9363 10.2389
lowerback 13.1372 4.77731 6.80275
upperback 7.94458 7.05958 4.94084
thorax 1.25518 3.6667 0.562449
lowerneck 3.37404 -7.42142 -5.46633
upperneck 6.35328 -9.50349 -10.4632
head 1.16069 -4.92101 -2.37821
rclavicle 5.725e-014 -6.99722e-014
rhumerus 39.06 6.59514 -68.0108
rradius 32.3702
rwrist 21.2266
rhand 27.3322 6.34869
rfingers 7.12502
rthumb 51.2933 -14.1675
lclavicle 5.725e-014 -6.99722e-014
lhumerus 35.466 22.3785 4.30708
lradius 73.1846
lwrist 36.4081
lhand 32.1549 39.3927
lfingers 7.12502
lthumb 55.6332 57.0633
rfemur -25.1681 -10.2518 9.36736
rtibia 36.2676
rfoot -16.2003 -20.2579
rtoes -10.4183
lfemur -21.175 -2.1395 -28.4141
ltibia 21.4693
lfoot -4.25043 2.80599
ltoes -15.0609
